<?xml version="1.0" standalone="no"?>
<!DOCTYPE svg PUBLIC "-//W3C//DTD SVG 20010904//EN"
 "http://www.w3.org/TR/2001/REC-SVG-20010904/DTD/svg10.dtd">
<svg version="1.0" xmlns="http://www.w3.org/2000/svg"
 width="64.000000pt" height="64.000000pt" viewBox="0 0 64.000000 64.000000"
 preserveAspectRatio="xMidYMid meet">

<g transform="translate(0.000000,64.000000) scale(0.100000,-0.100000)"
fill="#ffffff" stroke="none">
<path d="M300 605 c0 -19 -7 -26 -27 -31 -108 -23 -184 -99 -207 -206 -5 -22
-12 -28 -31 -28 -14 0 -25 -4 -25 -10 0 -5 11 -10 25 -10 19 0 26 -6 31 -27
20 -97 88 -172 178 -198 48 -14 56 -20 56 -41 0 -13 5 -24 10 -24 6 0 10 11
10 24 0 21 8 27 57 41 80 23 145 88 168 168 14 49 20 57 41 57 13 0 24 5 24
10 0 6 -11 10 -24 10 -21 0 -27 8 -41 56 -26 90 -101 158 -197 178 -22 5 -28
12 -28 31 0 14 -4 25 -10 25 -5 0 -10 -11 -10 -25z m0 -85 c0 -22 5 -40 10
-40 6 0 10 18 10 40 0 34 3 40 20 40 83 0 199 -115 200 -197 0 -20 -5 -23 -40
-23 -22 0 -40 -4 -40 -10 0 -5 18 -10 40 -10 35 0 40 -3 40 -22 -1 -83 -117
-198 -200 -198 -17 0 -20 6 -20 40 0 22 -4 40 -10 40 -5 0 -10 -18 -10 -40 0
-34 -3 -40 -20 -40 -83 0 -199 115 -200 198 0 19 5 22 40 22 22 0 40 5 40 10
0 6 -18 10 -40 10 -34 0 -40 3 -40 20 0 83 115 199 198 200 19 0 22 -5 22 -40z"/>
<path d="M208 485 c-39 -27 -82 -88 -75 -108 2 -6 11 4 21 25 21 43 40 62 92
88 27 13 33 19 19 20 -11 0 -37 -11 -57 -25z"/>
<path d="M350 500 c19 -13 30 -13 30 0 0 6 -10 10 -22 10 -19 0 -20 -2 -8 -10z"/>
<path d="M434 450 c15 -19 33 -45 38 -59 7 -17 12 -21 15 -12 6 15 -45 92 -67
99 -8 3 -2 -10 14 -28z"/>
<path d="M294 339 c-10 -17 13 -36 27 -22 12 12 4 33 -11 33 -5 0 -12 -5 -16
-11z"/>
<path d="M476 280 c-14 -43 -53 -87 -98 -108 -29 -14 -36 -21 -23 -22 49 -1
142 96 133 137 -3 14 -6 13 -12 -7z"/>
<path d="M145 260 c-3 -5 -2 -10 4 -10 5 0 13 5 16 10 3 6 2 10 -4 10 -5 0
-13 -4 -16 -10z"/>
<path d="M185 209 c-11 -17 1 -21 15 -4 8 9 8 15 2 15 -6 0 -14 -5 -17 -11z"/>
<path d="M240 175 c0 -8 2 -15 4 -15 2 0 6 7 10 15 3 8 1 15 -4 15 -6 0 -10
-7 -10 -15z"/>
</g>
</svg>
